<?xml version="1.0" encoding="UTF-8"?>
<svg id="Layer_2" data-name="Layer 2" xmlns="http://www.w3.org/2000/svg" xmlns:xlink="http://www.w3.org/1999/xlink" viewBox="0 0 3535.66 919.32">
  <defs>
    <style>
      .cls-1, .cls-2, .cls-3, .cls-4, .cls-5, .cls-6, .cls-7, .cls-8, .cls-9, .cls-10, .cls-11, .cls-12, .cls-13, .cls-14, .cls-15, .cls-16, .cls-17, .cls-18, .cls-19, .cls-20, .cls-21, .cls-22, .cls-23, .cls-24, .cls-25, .cls-26, .cls-27, .cls-28, .cls-29, .cls-30, .cls-31, .cls-32, .cls-33, .cls-34, .cls-35, .cls-36, .cls-37, .cls-38, .cls-39, .cls-40, .cls-41, .cls-42, .cls-43, .cls-44 {
        fill: none;
      }

      .cls-2 {
        stroke: #e7574b;
      }

      .cls-2, .cls-3, .cls-4, .cls-5, .cls-6, .cls-7, .cls-8, .cls-9, .cls-10, .cls-11, .cls-12, .cls-13, .cls-14, .cls-15, .cls-16, .cls-17, .cls-18, .cls-19, .cls-20, .cls-21, .cls-22, .cls-23, .cls-24, .cls-25, .cls-26, .cls-27, .cls-28, .cls-30, .cls-32, .cls-33, .cls-34, .cls-35, .cls-36, .cls-37, .cls-38, .cls-39, .cls-40, .cls-41, .cls-42, .cls-43, .cls-44 {
        stroke-miterlimit: 10;
      }

      .cls-45 {
        fill: #110f24;
      }

      .cls-3 {
        stroke: #d27760;
      }

      .cls-4 {
        stroke: #c18971;
      }

      .cls-5 {
        stroke: #ac9a83;
      }

      .cls-6 {
        stroke: #a99c86;
      }

      .cls-7 {
        stroke: #cddc29;
      }

      .cls-8 {
        stroke: #cb7f67;
      }

      .cls-9 {
        stroke: #a69f88;
      }

      .cls-10 {
        stroke: #e55b4d;
      }

      .cls-11 {
        stroke: #e06352;
      }

      .cls-12 {
        stroke: #8dae9c;
      }

      .cls-13 {
        stroke: #f04844;
      }

      .cls-14 {
        stroke: #99a894;
      }

      .cls-15 {
        stroke: #72b9ae;
      }

      .cls-16 {
        stroke: #89b09f;
      }

      .cls-17 {
        stroke: #b6937b;
      }

      .cls-18 {
        stroke: #80b4a5;
      }

      .cls-19 {
        stroke: #da6d59;
      }

      .cls-20 {
        stroke: #ce7c65;
      }

      .cls-21 {
        stroke: #be8c74;
      }

      .cls-22 {
        stroke: #91ac99;
      }

      .cls-23 {
        stroke: #7cb6a8;
      }

      .cls-24 {
        stroke: #c3876f;
      }

      .cls-25 {
        stroke: #d07962;
      }

      .cls-26 {
        stroke: #b09880;
      }

      .cls-27 {
        stroke: #dc6a57;
      }

      .cls-28 {
        stroke: #b89079;
      }

      .cls-29 {
        stroke: #c9816a;
        stroke-miterlimit: 10;
      }

      .cls-30 {
        stroke: #b3957e;
      }

      .cls-31 {
        stroke: #d7715b;
        stroke-miterlimit: 10;
      }

      .cls-32 {
        stroke: #de6654;
      }

      .cls-33 {
        stroke: #77b8ab;
      }

      .cls-46 {
        opacity: .5;
      }

      .cls-34 {
        stroke: #85b2a2;
      }

      .cls-35 {
        stroke: #a3a18b;
      }

      .cls-36 {
        stroke: #d5745e;
      }

      .cls-37 {
        stroke: #e95248;
      }

      .cls-38 {
        stroke: #ec4e46;
      }

      .cls-39 {
        stroke: #c6846c;
      }

      .cls-47 {
        fill: #cddc29;
      }

      .cls-40 {
        stroke: #e35f4f;
      }

      .cls-41 {
        stroke: #9ca591;
      }

      .cls-42 {
        stroke: #a0a38e;
      }

      .cls-43 {
        stroke: #95aa96;
      }

      .cls-44 {
        stroke: #bb8e76;
      }

      .cls-48 {
        clip-path: url(#clippath);
      }
    </style>
    <clipPath id="clippath">
      <rect class="cls-1" width="3535.66" height="919.32"/>
    </clipPath>
  </defs>
  <g id="Layer_1-2" data-name="Layer 1">
    <g class="cls-48">
      <rect class="cls-45" width="3535.66" height="919.32"/>
      <g class="cls-46">
        <path class="cls-47" d="M2290.06,154.72l107.69-60.85,131.57-27.34.99-41.76-116.42-65.24-91.3-83.92,83.35-90.06,91.3,83.92,69.79,117.8,40.76-10.02,21.02-135.11,56.97-124.72,112.24,51.27-56.97,124.72-88.36,104.35,19.11,37.37,134.74-24.37,123.21,14.07-13.5,121.96-123.21-14.07-125.54-45.29-30.92,28.08,65.48,117.35,24.51,121.23-121.24,24.52-24.51-121.24,7.73-129.12-37.42-17.09-92.53,90.38-107.69,60.86-60.85-107.69Z"/>
      </g>
      <g class="cls-46">
        <path class="cls-47" d="M-319.84,453.7l107.69-60.85,131.57-27.34.99-41.76-116.42-65.24-91.3-83.92,83.35-90.06,91.3,83.92,69.79,117.8,40.76-10.02,21.02-135.11L75.87,16.42l112.24,51.27-56.97,124.72-88.36,104.35,19.11,37.37,134.74-24.37,123.21,14.07-13.5,121.96-123.21-14.07-125.54-45.29-30.92,28.08,65.48,117.35,24.51,121.23-121.24,24.52-24.51-121.24,7.73-129.12-37.42-17.09-92.53,90.38-107.69,60.86-60.85-107.69Z"/>
      </g>
      <g>
        <path class="cls-13" d="M-420.28-7.85C-335.55,57.27-208.43,133.73-46.02,152.01,298.64,190.8,534.2-62.66,603.43,1.56,721.52,111.09,37.6,855.92,221.03,1092.34c89.19,114.96,341.43,74.82,470.17,30.09,203.91-70.85,315.35-230.4,383.66-331,199.78-294.2,127.7-485.76,336.01-634.41,35.44-25.29,127.23-88.89,245.74-80.24,146.8,10.71,243.22,125.58,268.31,155.47,217.14,258.68,34.95,569.27,189.53,678.67,147.42,104.33,348.82-154.38,611.53-66.83,255.32,85.09,238.07,381.39,440.18,436.32,313.16,85.11,867.95-486.68,762.3-762.3-126.62-330.32-1133.95-58.12-1213.66-310.94-87.66-278.03,957.19-1157.24,1564.72-854.41,446.66,222.65,678.83,1095.16,220.67,1977.79"/>
        <path class="cls-38" d="M-421.97,5.78c85.77,62.69,212.73,136.63,373.91,153.94,173.95,18.48,320.23-35.99,431.51-86.12,107.93-48.77,182.06-93.05,216.88-62.5,26.06,22.86,16.12,73.05-13.3,141.1-110.23,255.01-505.25,756.2-360.1,945.74,62.4,81.24,204.57,87.38,328.47,68.06,52.52-8.21,101.79-21.05,140.4-34.56,202.03-70.47,313.98-229.4,383.32-331.5,132.85-195.63,146.43-346.93,201.88-470.54,27.2-60.38,65.27-114.73,133.12-164.57,19.4-14.25,54.98-39.46,102.39-57.75,32.27-12.32,69.59-20.99,110.09-21.89,10.57-.23,21.38.21,32.42,1.17,144.58,12.6,238.91,127.2,264.2,158.96,208.95,262.37,34.03,571.04,187.81,679.18,146.91,103.25,348.36-156.58,609.77-74.29,75.86,23.65,128.18,66.05,169.55,116.05,96.96,117.84,130.96,275.54,270.67,317.42,96.02,28.79,214.86-4.03,331.74-73.12,258.85-153.49,504.08-483.69,432.62-675.23-124.12-331.29-1129.66-67.12-1212.26-320.42-8.63-26.46-7.1-58.26,3.33-93.94,99.34-340.72,1010.9-1034.25,1563.07-757.78,448.01,224.28,679.79,1097.39,220.67,1977.79"/>
        <path class="cls-37" d="M-423.67,19.4c86.81,60.27,213.61,131.69,373.56,148.02,173.28,17.31,319.23-36.27,430.63-85.48,107.61-47.82,181.27-90.75,216.71-61.32,27.19,22.58,18.14,71.46-9.78,138.48-105.08,252.19-500.23,751.8-354.61,944.42,62.19,81.77,203.55,89.79,327.15,71.25,52.33-7.88,101.56-20.64,140.41-34.34,200.14-70.08,312.62-228.39,382.99-332.01,131.97-194.32,147.21-345.98,202.37-470.32,26.86-60.08,64.77-114.99,131.62-165.49,19.55-14.77,54.83-40.35,102.01-58.15,32.58-12.29,70.02-19.91,109.87-20.28,10.51-.1,21.23.62,32.17,1.73,142.36,14.47,234.59,128.79,260.08,162.45,201.13,265.56,33.11,572.8,186.08,679.69,146.4,102.18,347.69-158.07,608.02-81.74,75.67,22.19,128.66,62.63,170.6,111.94,98.25,115.5,132.22,273.53,269.65,318.7,94.77,31.14,211.85,2.46,328.72-63.95,258.34-147.71,507.78-477.37,437.7-670.44-121.63-332.26-1125.37-76.11-1210.86-329.91-8.93-26.51-7.76-58.3,2.35-93.93,96.16-341.04,1011.24-1033.96,1565.75-755.09,449.37,225.92,680.75,1099.61,220.67,1977.79"/>
        <path class="cls-2" d="M-425.37,33.02c87.86,57.86,214.48,126.75,373.21,142.11,172.61,16.14,318.23-36.56,429.74-84.83C484.87,43.44,558.1,1.83,594.12,30.17c28.35,22.3,20.17,69.88-6.27,135.86-99.93,249.41-495.61,747.71-349.11,943.09,61.8,82.43,202.53,92.2,325.83,74.43,52.14-7.56,101.33-20.23,140.42-34.13,198.26-69.7,311.26-227.39,382.66-332.52,131.08-193.02,147.73-345.14,202.86-470.11,26.4-59.84,64.26-115.27,130.12-166.4,19.71-15.3,54.71-41.15,101.63-58.55,32.9-12.2,70.46-19.87,109.65-18.66,10.44.32,21.08,1.02,31.93,2.29,140.12,16.33,230.27,130.33,255.97,165.93,193.66,268.3,32.19,574.57,184.35,680.2,145.89,101.11,347.16-159.93,606.27-89.2,75.52,20.61,129.06,59.26,171.65,107.82,99.37,113.3,133.49,271.54,268.64,319.97,93.53,33.51,208.83,8.94,325.71-54.79,257.84-141.92,511.49-471.06,442.77-665.65-119.13-333.23-1121.08-85.11-1209.45-339.4-9.24-26.57-8.42-58.33,1.36-93.93,92.99-341.36,1011.58-1033.67,1568.42-752.4,450.72,227.55,681.7,1101.84,220.67,1977.79"/>
        <path class="cls-10" d="M-427.07,46.65c88.9,55.44,215.33,122.14,372.87,136.19,171.91,15.34,317.33-36.6,428.85-84.18,107.07-45.68,179.81-86.21,216.36-58.96,29.54,22.02,22.2,68.3-2.75,133.24-94.78,246.67-490.71,743.4-343.62,941.76,61.54,82.99,201.51,94.61,324.52,77.62,51.96-7.24,101.07-19.92,140.43-33.91,196.22-69.75,309.89-226.38,382.33-333.02,130.2-191.71,148.43-344.22,203.34-469.89,26.03-59.55,63.74-115.59,128.62-167.32,19.87-15.84,54.6-41.95,101.25-58.95,33.23-12.11,70.92-19.1,109.42-17.05,10.37.55,20.93,1.43,31.69,2.85,137.88,18.16,225.96,131.84,251.86,169.42,186.52,270.66,31.27,576.33,182.63,680.71,145.38,100.03,346.63-161.8,604.51-96.66,75.37,19.04,129.46,55.9,172.69,103.7,100.47,111.1,134.76,269.57,267.63,321.25,92.29,35.9,205.98,15.74,322.69-45.62,257.68-135.47,515.69-464.91,447.85-660.86-115.79-334.49-1116.79-94.1-1208.05-348.89-9.54-26.62-9.07-58.37.37-93.92,89.81-341.67,1011.92-1033.38,1571.09-749.72,452.08,229.19,682.66,1104.07,220.67,1977.79"/>
        <path class="cls-40" d="M-428.76,60.27c89.94,53.02,216.21,117.27,372.52,130.27,171.24,14.25,316.34-36.83,427.96-83.53,106.77-44.68,179.13-83.98,216.19-57.77,30.75,21.74,24.23,66.74.76,130.62-89.64,243.97-485.8,739.08-338.13,940.44,61.28,83.55,200.49,97.02,323.2,80.81,51.77-6.91,100.83-19.53,140.44-33.69,194.31-69.46,308.53-225.38,382-333.53,129.31-190.4,149.13-343.3,203.83-469.67,25.66-59.27,63.2-115.93,127.13-168.23,20.03-16.38,54.48-42.74,100.87-59.35,33.55-12.01,71.3-16.61,109.2-15.44,10.33.32,20.78,1.83,31.44,3.4,135.62,19.98,221.65,133.32,247.74,172.91,179.7,272.68,30.35,578.1,180.9,681.22,144.87,98.96,346.13-163.68,602.76-104.12,75.23,17.46,129.86,52.53,173.74,99.58,101.57,108.91,136.05,267.62,266.62,322.53,91.07,38.29,202.99,22.3,319.68-36.45,257.24-129.52,519.5-458.62,452.93-656.07-113.12-335.52-1112.51-103.1-1206.65-358.37-9.85-26.68-9.73-58.4-.61-93.92,86.63-341.99,1012.26-1033.09,1573.77-747.03,453.43,230.82,683.61,1106.29,220.67,1977.79"/>
        <path class="cls-11" d="M-430.46,73.89c90.98,50.6,217.08,112.39,372.17,124.36,170.56,13.16,315.36-37.06,427.07-82.88,106.47-43.67,178.49-81.77,216.02-56.59,31.98,21.45,26.27,65.19,4.28,128-84.49,241.31-480.89,734.75-332.64,939.11,61.02,84.11,199.47,99.43,321.89,84,51.58-6.59,100.59-19.14,140.45-33.47,192.39-69.16,307.17-224.37,381.66-334.04,128.43-189.09,149.83-342.38,204.32-469.46,25.29-58.98,62.65-116.3,125.63-169.15,20.18-16.93,54.37-43.52,100.49-59.74,33.88-11.92,71.74-15.5,108.97-13.82,10.27.46,20.63,2.24,31.2,3.96,133.36,21.77,217.36,134.77,243.63,176.4,173.17,274.4,29.43,579.86,179.18,681.73,144.36,97.89,345.64-165.57,601-111.58,75.09,15.88,130.25,49.17,174.79,95.47,102.66,106.72,137.34,265.69,265.61,323.8,89.84,40.7,200,28.85,316.66-27.29,256.79-123.58,523.3-452.33,458-651.29-110.45-336.53-1108.22-112.09-1205.25-367.86-10.15-26.73-10.39-58.44-1.6-93.91,83.46-342.3,1012.6-1032.8,1576.44-744.34,454.78,232.46,684.57,1108.52,220.67,1977.79"/>
        <path class="cls-32" d="M-432.16,87.52c92.02,48.18,217.96,107.51,371.83,118.44,169.89,12.06,314.37-37.29,426.19-82.23,106.16-42.67,177.88-79.58,215.85-55.41,33.23,21.15,28.31,63.64,7.79,125.38-79.34,238.7-475.97,730.42-327.15,937.79,60.77,84.67,198.44,101.84,320.57,87.19,51.39-6.26,100.35-18.75,140.47-33.26,190.48-68.85,305.8-223.37,381.33-334.54,127.54-187.78,150.54-341.45,204.81-469.24,24.92-58.7,62.08-116.7,124.13-170.06,20.33-17.49,54.27-44.3,100.11-60.14,34.21-11.82,72.18-14.38,108.75-12.21,10.22.61,20.47,2.64,30.96,4.52,131.09,23.53,213.08,136.19,239.52,179.89,166.91,275.86,28.5,581.63,177.45,682.24,143.86,96.81,345.16-167.48,599.25-119.04,74.96,14.29,130.64,45.81,175.83,91.35,103.73,104.53,138.63,263.79,264.6,325.08,88.62,43.12,197.01,35.41,313.64-18.12,256.33-117.65,527.1-446.03,463.08-646.5-107.8-337.54-1103.93-121.09-1203.85-377.35-10.45-26.79-10.98-58.46-2.59-93.91,81.03-342.44,1012.94-1032.51,1579.12-741.65,456.14,234.09,685.53,1110.75,220.67,1977.79"/>
        <path class="cls-27" d="M-433.86,101.14c93.06,45.76,218.84,102.63,371.48,112.52,169.22,10.96,313.39-37.52,425.3-81.59,105.85-41.68,177.29-77.42,215.67-54.23,34.51,20.85,30.36,62.11,11.31,122.76-74.18,236.13-471.04,726.08-321.66,936.46,60.52,85.22,197.42,104.25,319.26,90.38,51.21-5.94,100.11-18.37,140.48-33.04,188.57-68.54,304.44-222.36,381-335.05,126.66-186.47,151.26-340.52,205.29-469.03,24.56-58.41,61.5-117.12,122.63-170.98,20.49-18.05,54.16-45.08,99.73-60.54,34.55-11.72,72.62-13.25,108.52-10.6,10.16.75,20.32,3.04,30.71,5.08,128.81,25.28,208.81,137.59,235.41,183.38,160.91,277.1,27.58,583.4,175.73,682.75,143.35,95.74,344.71-169.41,597.49-126.49,74.83,12.7,131.02,42.45,176.88,87.23,104.8,102.34,139.93,261.9,263.59,326.35,87.41,45.56,194.01,41.96,310.63-8.96,255.86-111.72,530.9-439.73,468.15-641.71-105.16-338.55-1099.64-130.09-1202.45-386.83-10.76-26.84-11.63-58.49-3.58-93.9,77.94-342.74,1013.28-1032.22,1581.79-738.97,457.49,235.72,686.48,1112.97,220.67,1977.79"/>
        <path class="cls-19" d="M-435.55,114.76c94.1,43.34,219.71,97.75,371.13,106.6,168.55,9.86,312.4-37.76,424.41-80.94,105.54-40.68,176.73-75.28,215.5-53.05,35.8,20.53,32.41,60.59,14.82,120.14-69.02,233.61-466.11,721.74-316.16,935.13,60.27,85.77,196.4,106.66,317.94,93.56,51.02-5.62,99.87-17.98,140.49-32.82,186.66-68.22,303.08-221.36,380.67-335.56,125.77-185.16,151.98-339.59,205.78-468.81,24.2-58.12,60.91-117.56,121.13-171.89,20.63-18.61,54.06-45.85,99.35-60.94,34.88-11.62,73.07-12.11,108.3-8.98,10.11.9,20.16,3.43,30.47,5.63,126.53,27,204.57,138.96,231.29,186.87,155.15,278.14,26.66,585.16,174,683.26,142.84,94.67,344.26-171.35,595.74-133.95,74.71,11.11,131.4,39.09,177.93,83.11,105.85,100.17,141.23,260.04,262.57,327.63,86.19,48.01,191.01,48.51,307.61.21,255.39-105.8,534.68-433.43,473.23-636.92-102.54-339.54-1095.36-139.08-1201.05-396.32-11.06-26.9-12.28-58.53-4.56-93.9,74.84-343.05,1013.62-1031.93,1584.46-736.28,458.85,237.36,687.44,1115.2,220.67,1977.79"/>
        <path class="cls-31" d="M-437.25,128.39c95.14,40.92,220.59,92.86,370.79,100.69,167.89,8.75,311.41-38,423.52-80.29,105.23-39.69,176.2-73.16,215.33-51.86,37.1,20.19,34.48,59.08,18.34,117.52-63.84,231.14-461.17,717.39-310.67,933.81,60.03,86.32,195.38,109.07,316.62,96.75,50.83-5.29,99.63-17.59,140.5-32.6,184.76-67.89,301.71-220.35,380.34-336.07,124.89-183.86,152.7-338.66,206.27-468.59,23.84-57.83,60.3-118.03,119.63-172.81,20.78-19.18,53.96-46.62,98.98-61.33,35.21-11.51,73.52-10.96,108.07-7.37,10.06,1.04,20.01,3.83,30.23,6.19,124.24,28.69,200.34,140.31,227.18,190.36,149.62,279.02,25.74,586.93,172.28,683.78,142.33,93.59,343.83-173.31,593.98-141.41,74.59,9.51,131.78,35.73,178.97,78.99,106.89,97.99,142.53,258.2,261.56,328.91,84.98,50.48,188,55.06,304.6,9.38,254.9-99.88,538.46-427.13,478.31-632.13-99.92-340.53-1091.07-148.08-1199.65-405.81-11.37-26.95-12.93-58.56-5.55-93.89,71.74-343.36,1013.96-1031.65,1587.14-733.59,460.2,238.99,688.39,1117.43,220.67,1977.79"/>
        <path class="cls-36" d="M-438.95,142.01c96.19,38.5,221.47,87.96,370.44,94.77,167.22,7.64,310.41-38.24,422.63-79.64,104.92-38.71,175.68-71.07,215.15-50.68,38.43,19.85,36.55,57.58,21.85,114.9-58.65,228.72-456.22,713.03-305.18,932.48,59.79,86.86,194.36,111.48,315.31,99.94,50.64-4.97,99.39-17.19,140.51-32.39,182.86-67.56,300.35-219.35,380-336.57,124-182.55,153.42-337.72,206.76-468.38,23.49-57.53,59.68-118.51,118.14-173.72,20.92-19.76,53.86-47.38,98.6-61.73,35.55-11.4,73.97-9.8,107.85-5.76,10.01,1.19,19.85,4.23,29.99,6.75,121.94,30.35,196.14,141.64,223.07,193.84,144.28,279.75,24.82,588.69,170.55,684.29,141.82,92.52,343.41-175.29,592.23-148.87,74.47,7.91,132.15,32.38,180.02,74.88,107.93,95.82,143.82,256.38,260.55,330.18,83.76,52.96,184.99,61.61,301.58,18.54,254.4-93.97,542.24-420.82,483.38-627.35-97.32-341.52-1086.78-157.07-1198.24-415.3-11.67-27.01-13.58-58.6-6.54-93.89,68.63-343.67,1014.3-1031.36,1589.81-730.91,461.55,240.63,689.35,1119.65,220.67,1977.79"/>
        <path class="cls-3" d="M-440.64,155.63c97.23,36.08,222.35,83.06,370.09,88.85,166.56,6.53,309.42-38.49,421.75-78.99,104.61-37.72,175.18-69,214.98-49.5,39.77,19.48,38.63,56.1,25.37,112.28-53.44,226.35-451.26,708.67-299.69,931.15,59.55,87.41,193.34,113.89,313.99,103.13,50.46-4.65,99.16-16.8,140.52-32.17,180.96-67.22,298.99-218.34,379.67-337.08,123.12-181.24,154.15-336.78,207.24-468.16,23.13-57.24,59.04-119.01,116.64-174.64,21.06-20.34,53.76-48.14,98.22-62.13,35.88-11.29,74.43-8.63,107.63-4.15,9.96,1.34,19.69,4.62,29.74,7.31,119.64,31.99,191.97,142.95,218.95,197.33,139.14,280.35,23.9,590.46,168.82,684.8,141.31,91.45,343-177.29,590.47-156.33,74.36,6.3,132.52,29.02,181.07,70.76,108.95,93.66,145.11,254.59,259.54,331.46,82.55,55.46,181.98,68.15,298.57,27.71,253.9-88.07,546-414.51,488.46-622.56-94.73-342.5-1082.49-166.07-1196.84-424.78-11.97-27.06-14.24-58.63-7.52-93.88,65.52-343.98,1014.64-1031.07,1592.49-728.22,462.91,242.26,690.3,1121.88,220.67,1977.79"/>
        <path class="cls-25" d="M-442.34,169.26c98.27,33.66,223.24,78.16,369.75,82.94,165.89,5.41,308.42-38.74,420.86-78.34,104.29-36.74,174.69-66.95,214.81-48.32s40.73,54.62,28.88,109.66c-48.21,224.04-446.3,704.31-294.2,929.83,59.31,87.95,192.31,116.3,312.68,106.32,50.27-4.32,98.92-16.41,140.54-31.95,179.06-66.87,297.62-217.34,379.34-337.59,122.24-179.93,154.89-335.84,207.73-467.94,22.78-56.95,58.39-119.53,115.14-175.55,21.2-20.93,53.67-48.89,97.84-62.53,36.22-11.18,74.88-7.45,107.4-2.53,9.91,1.5,19.53,5.01,29.5,7.86,117.34,33.6,187.81,144.25,214.84,200.82,134.17,280.85,22.98,592.22,167.1,685.31,140.8,90.37,342.6-179.31,588.72-163.79,74.25,4.68,132.88,25.67,182.11,66.64,109.97,91.5,146.39,252.81,258.53,332.74,81.33,57.97,178.96,74.69,295.55,36.87,253.39-82.18,549.76-408.19,493.54-617.77-92.15-343.48-1078.21-175.06-1195.44-434.27-12.28-27.12-14.89-58.67-8.51-93.88,62.4-344.3,1014.98-1030.78,1595.16-725.53,464.26,243.9,691.26,1124.11,220.67,1977.79"/>
        <path class="cls-20" d="M-444.04,182.88c99.31,31.25,224.12,73.25,369.4,77.02,165.23,4.28,307.43-38.99,419.97-77.7,103.98-35.76,174.22-64.93,214.64-47.14,42.48,18.7,42.83,53.16,32.4,107.04-42.96,221.78-441.33,699.93-288.7,928.5,59.08,88.48,191.29,118.71,311.36,109.51,50.08-4,98.68-16.01,140.55-31.73,177.16-66.52,296.26-216.33,379.01-338.09,121.35-178.62,155.63-334.9,208.22-467.73,22.43-56.65,57.73-120.06,113.64-176.47,21.33-21.52,53.57-49.64,97.46-62.93,36.56-11.07,75.34-6.25,107.18-.92,9.86,1.65,19.37,5.4,29.26,8.42,115.04,35.18,183.69,145.53,210.73,204.31,129.37,281.25,22.06,593.99,165.37,685.82,140.3,89.3,342.22-181.35,586.97-171.24,74.14,3.06,133.24,22.33,183.16,62.52,110.97,89.36,147.67,251.06,257.52,334.01,80.1,60.49,175.94,81.22,292.54,46.04,252.87-76.3,553.51-401.87,498.61-612.98-89.58-344.45-1073.92-184.06-1194.04-443.76-12.58-27.17-15.54-58.71-9.5-93.87,59.27-344.62,1015.32-1030.49,1597.83-722.84,465.61,245.53,692.22,1126.33,220.67,1977.79"/>
        <path class="cls-8" d="M-445.74,196.5c100.35,28.83,225,68.34,369.05,71.1,164.56,3.16,306.43-39.24,419.08-77.05,103.66-34.79,173.76-62.92,214.46-45.96,43.86,18.28,44.95,51.71,35.91,104.42-37.66,219.58-436.35,695.56-283.21,927.18,58.86,89.02,190.27,121.12,310.04,112.69,49.89-3.67,98.44-15.62,140.56-31.52,175.27-66.16,294.9-215.33,378.67-338.6,120.47-177.31,156.37-333.96,208.71-467.51,22.09-56.35,57.06-120.61,112.14-177.38,21.46-22.12,53.48-50.39,97.08-63.32,36.9-10.95,75.8-5.05,106.95.69,9.81,1.81,19.22,5.79,29.01,8.98,112.74,36.74,179.59,146.79,206.62,207.8,124.72,281.58,21.14,595.75,163.65,686.33,139.79,88.23,341.83-183.42,585.21-178.7,74.04,1.43,133.59,18.98,184.21,58.41,111.97,87.21,148.94,249.32,256.51,335.29,78.87,63.03,172.92,87.75,289.52,55.21,252.34-70.43,557.26-395.56,503.69-608.19-87.03-345.42-1069.63-193.05-1192.64-453.24-12.89-27.23-16.2-58.74-10.48-93.87,56.14-344.94,1015.65-1030.2,1600.51-720.16,466.97,247.17,693.17,1128.56,220.67,1977.79"/>
        <path class="cls-29" d="M-447.43,210.13c101.39,26.41,225.89,63.43,368.7,65.19,163.9,2.02,305.43-39.5,418.19-76.4,103.34-33.81,173.3-60.94,214.29-44.77,45.24,17.84,47.09,50.27,39.43,101.8-32.33,217.43-431.36,691.17-277.72,925.85,58.63,89.55,189.25,123.53,308.73,115.88,49.71-3.35,98.21-15.22,140.57-31.3,173.37-65.8,293.53-214.32,378.34-339.11,119.58-176.01,157.12-333.01,209.19-467.29,21.74-56.06,56.37-121.17,110.64-178.3,21.58-22.72,53.39-51.13,96.7-63.72,37.24-10.83,76.26-3.84,106.73,2.31,9.77,1.97,19.06,6.17,28.77,9.54,110.44,38.26,175.53,148.04,202.5,211.29,120.21,281.84,20.22,597.52,161.92,686.84,139.28,87.15,341.62-177.46,583.46-186.16,73.89-2.66,133.94,15.64,185.25,54.29,112.96,85.08,150.2,247.61,255.49,336.56,77.63,65.58,169.89,94.28,286.51,64.37,251.81-64.57,561-389.23,508.76-603.41-84.48-346.38-1065.34-202.05-1191.24-462.73-13.19-27.28-16.86-58.78-11.47-93.86,53-345.26,1015.99-1029.91,1603.18-717.47,468.32,248.8,694.13,1130.78,220.67,1977.79"/>
        <path class="cls-39" d="M-449.13,223.75c102.43,23.99,226.77,60.46,368.36,59.27,163.24-1.37,304.43-39.76,417.31-75.75,103.02-32.84,172.86-58.97,214.12-43.59,46.63,17.38,49.24,48.85,42.94,99.18-26.96,215.34-426.37,686.78-272.23,924.52,58.41,90.08,188.23,125.94,307.41,119.07,49.52-3.03,97.97-14.82,140.58-31.08,171.48-65.43,292.17-213.32,378.01-339.61,118.7-174.7,157.87-332.07,209.68-467.08,21.4-55.76,55.67-121.75,109.14-179.21,21.7-23.32,53.3-51.87,96.32-64.12,37.59-10.71,76.72-2.62,106.5,3.92,9.72,2.13,18.9,6.55,28.53,10.1,108.14,39.75,171.49,149.28,198.39,214.78,115.84,282.05,19.3,599.28,160.2,687.35,138.77,86.08,341.09-187.62,581.7-193.62,73.83-1.84,134.29,12.3,186.3,50.17,113.93,82.96,151.44,245.91,254.48,337.84,76.38,68.15,166.86,100.79,283.49,73.54,251.26-58.72,564.73-382.91,513.84-598.62-81.95-347.34-1061.06-211.05-1189.84-472.22-13.49-27.34-17.51-58.82-12.46-93.86,49.86-345.58,1016.33-1029.62,1605.86-714.78,469.68,250.44,695.08,1133.01,220.67,1977.79"/>
        <path class="cls-24" d="M-450.83,237.37c103.47,21.57,227.67,55.57,368.01,53.35,162.56-2.57,303.42-40.03,416.42-75.1,102.69-31.88,172.42-57.02,213.94-42.41,48.03,16.9,51.42,47.44,46.46,96.56-21.53,213.31-421.37,682.39-266.74,923.2,58.19,90.61,187.21,128.35,306.1,122.26,49.33-2.7,97.74-14.42,140.59-30.86,169.59-65.06,290.81-212.31,377.68-340.12,117.81-173.39,158.63-331.12,210.17-466.86,21.06-55.46,54.96-122.33,107.65-180.13,21.82-23.93,53.21-52.6,95.94-64.52,37.93-10.58,77.18-1.38,106.28,5.53,9.67,2.3,18.74,6.94,28.29,10.65,105.84,41.22,167.49,150.51,194.28,218.27,111.58,282.21,18.38,601.05,158.47,687.86,138.26,85.01,340.73-189.75,579.95-201.08,73.73-3.49,134.63,8.97,187.35,46.05,114.91,80.84,152.68,244.23,253.47,339.12,75.13,70.73,163.83,107.31,280.48,82.71,250.72-52.88,568.46-376.59,518.92-593.83-79.43-348.3-1056.77-220.04-1188.43-481.71-13.8-27.39-18.17-58.85-13.44-93.85,46.71-345.9,1016.67-1029.33,1608.53-712.1,471.03,252.07,696.04,1135.24,220.67,1977.79"/>
        <path class="cls-4" d="M-452.52,251c104.52,19.15,228.54,48.65,367.66,47.44,161.92-1.41,302.42-40.3,415.53-74.46,102.37-30.91,171.98-55.09,213.77-41.23,49.44,16.39,53.61,46.03,49.97,93.94-16.04,211.33-416.37,677.99-261.24,921.87,57.97,91.14,186.18,130.76,304.78,125.45,49.15-2.38,97.5-14.02,140.61-30.65,167.71-64.68,289.45-211.31,377.35-340.63,116.93-172.08,159.39-330.16,210.66-466.64,20.72-55.16,54.24-122.93,106.15-181.04,21.93-24.55,53.13-53.33,95.57-64.92,38.27-10.45,77.64-.14,106.06,7.14,9.63,2.47,18.58,7.31,28.04,11.21,103.55,42.65,163.52,151.73,190.16,221.75,107.44,282.34,17.46,602.81,156.75,688.37,137.75,83.93,340.37-191.91,578.19-208.54,73.63-5.15,134.98,5.64,188.39,41.94,115.87,78.73,153.9,242.56,252.46,340.39,73.86,73.31,160.79,113.82,277.46,91.87,250.17-47.06,572.18-370.26,523.99-589.04-76.92-349.26-1052.48-229.04-1187.03-491.19-14.1-27.45-18.83-58.89-14.43-93.84,43.55-346.23,1017.01-1029.04,1611.21-709.41,472.38,253.71,697,1137.46,220.67,1977.79"/>
        <path class="cls-21" d="M-454.22,264.62c105.56,16.73,229.43,43.71,367.32,41.52,161.26-2.56,301.41-40.57,414.64-73.81,102.04-29.96,171.55-53.17,213.6-40.05,50.85,15.87,55.82,44.64,53.49,91.32-10.48,209.39-411.35,673.59-255.75,920.54,57.76,91.67,185.16,133.17,303.46,128.64,48.96-2.06,97.27-13.62,140.62-30.43,165.82-64.29,288.08-210.3,377.01-341.13,116.04-170.77,160.16-329.21,211.14-466.43,20.38-54.86,53.5-123.54,104.65-181.96,22.03-25.16,53.04-54.06,95.19-65.31,38.62-10.32,78.09,1.12,105.83,8.76,9.58,2.64,18.42,7.69,27.8,11.77,101.27,44.05,159.58,152.93,186.05,225.24,103.41,282.44,16.54,604.58,155.02,688.88,137.24,82.86,340-194.1,576.44-215.99,73.54-6.81,135.31,2.31,189.44,37.82,116.83,76.63,155.1,240.9,251.45,341.67,72.58,75.91,157.75,120.32,274.44,101.04,249.61-41.24,575.89-363.93,529.07-584.25-74.42-350.21-1048.19-238.03-1185.63-500.68-14.41-27.5-19.49-58.93-15.42-93.84,40.38-346.56,1017.35-1028.75,1613.88-706.72,473.74,255.34,697.95,1139.69,220.67,1977.79"/>
        <path class="cls-44" d="M-455.92,278.24c106.6,14.31,230.31,38.77,366.97,35.6,160.6-3.72,300.4-40.84,413.75-73.16,101.72-29,171.12-51.27,213.42-38.87,52.26,15.32,58.06,43.26,57,88.7-4.84,207.51-406.33,669.19-250.26,919.22,57.55,92.19,184.14,135.58,302.15,131.82,48.77-1.73,97.03-13.22,140.63-30.21,163.94-63.9,286.72-209.3,376.68-341.64,115.16-169.46,160.93-328.26,211.63-466.21,20.05-54.56,52.76-124.15,103.15-182.87,22.13-25.79,52.96-54.78,94.81-65.71,38.96-10.18,78.55,2.39,105.61,10.37,9.54,2.81,18.27,8.06,27.56,12.33,99,45.43,155.67,154.13,181.94,228.73,99.48,282.52,15.62,606.34,153.29,689.39,136.74,81.79,339.64-196.31,574.68-223.45,73.44-8.48,135.65-1.01,190.49,33.7,117.78,74.54,156.29,239.26,250.44,342.95,71.29,78.52,154.71,126.82,271.43,110.2,249.05-35.45,579.59-357.6,534.14-579.47-71.93-351.16-1043.91-247.03-1184.23-510.17-14.71-27.56-20.15-58.96-16.4-93.83,37.21-346.88,1017.69-1028.46,1616.55-704.03,475.09,256.97,698.91,1141.92,220.67,1977.79"/>
        <path class="cls-28" d="M-457.62,291.87c107.64,11.89,231.2,33.83,366.62,29.69,159.94-4.89,299.4-41.12,412.87-72.51,101.39-28.05,170.69-49.38,213.25-37.68,53.68,14.75,60.33,41.89,60.52,86.08.89,205.66-401.3,664.78-244.77,917.89,57.34,92.71,183.12,137.99,300.83,135.01,48.58-1.41,96.8-12.81,140.64-29.99,162.06-63.5,285.36-208.29,376.35-342.15,114.27-168.15,161.71-327.3,212.12-465.99,19.72-54.25,52-124.78,101.65-183.79,22.22-26.41,52.87-55.5,94.43-66.11,39.31-10.04,79.01,3.67,105.38,11.98,9.49,2.99,18.11,8.43,27.31,12.88,96.74,46.77,151.8,155.32,177.83,232.22,95.64,282.58,14.7,608.11,151.57,689.9,136.23,80.71,339.27-198.54,572.93-230.91,73.34-10.16,135.98-4.32,191.53,29.58,118.72,72.46,157.47,237.63,249.43,344.22,69.99,81.13,151.67,133.3,268.41,119.37,248.49-29.66,583.29-351.27,539.22-574.68-69.46-352.11-1039.62-256.02-1182.83-519.65-15.01-27.61-20.81-59-17.39-93.83,34.03-347.21,1018.03-1028.17,1619.23-701.35,476.44,258.61,699.86,1144.14,220.67,1977.79"/>
        <path class="cls-17" d="M-459.31,305.49c108.68,9.47,232.08,28.88,366.28,23.77,159.28-6.06,298.39-41.41,411.98-71.86,101.06-27.1,170.26-47.51,213.08-36.5,55.09,14.16,62.62,40.52,64.03,83.46,6.72,203.85-396.27,660.36-239.28,916.56,57.13,93.24,182.1,140.4,299.52,138.2,48.4-1.08,96.57-12.41,140.65-29.78,160.18-63.1,283.99-207.29,376.02-342.65,113.39-166.85,162.49-326.34,212.61-465.78,19.39-53.95,51.23-125.41,100.15-184.7,22.31-27.05,52.79-56.21,94.05-66.51,39.66-9.9,79.46,4.96,105.16,13.6,9.44,3.17,17.96,8.8,27.07,13.44,94.49,48.09,147.96,156.5,173.71,235.71,91.89,282.64,13.78,609.88,149.84,690.41,135.72,79.64,338.9-200.8,571.17-238.37,73.23-11.85,136.31-7.64,192.58,25.47,119.66,70.39,158.63,236,248.42,345.5,68.68,83.76,148.63,139.79,265.4,128.54,247.92-23.89,586.98-344.94,544.3-569.89-66.99-353.05-1035.33-265.02-1181.43-529.14-15.32-27.67-21.47-59.04-18.38-93.82,30.85-347.54,1018.37-1027.88,1621.9-698.66,477.8,260.24,700.82,1146.37,220.67,1977.79"/>
        <path class="cls-30" d="M-461.01,319.11c109.72,7.06,232.97,23.92,365.93,17.85,158.62-7.24,297.38-41.69,411.09-71.21,100.73-26.15,169.83-45.65,212.91-35.32,56.51,13.55,64.93,39.16,67.55,80.84,12.67,202.07-391.22,655.94-233.79,915.24,56.93,93.76,181.08,142.81,298.2,141.39,48.21-.76,96.33-12,140.66-29.56,158.3-62.7,282.63-206.28,375.69-343.16,112.5-165.54,163.28-325.38,213.09-465.56,19.06-53.65,50.45-126.04,98.65-185.62,22.4-27.68,52.71-56.92,93.67-66.9,40.01-9.75,79.91,6.26,104.93,15.21,9.4,3.36,17.8,9.17,26.83,14,92.25,49.38,144.16,157.68,169.6,239.2,88.22,282.69,12.86,611.64,148.12,690.92,135.21,78.57,338.52-203.08,569.42-245.83,73.13-13.54,136.64-10.94,193.63,21.35,120.6,68.33,159.77,234.39,247.4,346.77,67.36,86.38,145.59,146.26,262.38,137.7,247.36-18.13,590.66-338.6,549.37-565.1-64.54-354-1031.04-274.01-1180.03-538.63-15.62-27.72-22.13-59.08-19.37-93.82,27.66-347.87,1018.71-1027.59,1624.58-695.97,479.15,261.88,701.78,1148.6,220.67,1977.79"/>
        <path class="cls-26" d="M-462.71,332.74c110.76,4.64,233.86,18.96,365.58,11.93,157.96-8.42,296.36-41.98,410.2-70.57,100.41-25.21,169.4-43.8,212.73-34.14,57.93,12.92,67.28,37.79,71.06,78.22,18.74,200.29-386.17,651.52-228.29,913.91,56.72,94.28,180.05,145.22,296.89,144.58,48.02-.44,96.1-11.59,140.67-29.34,156.43-62.29,281.27-205.28,375.35-343.67,111.62-164.23,164.07-324.41,213.58-465.35,18.74-53.34,49.67-126.69,97.16-186.53,22.47-28.32,52.63-57.63,93.29-67.3,40.36-9.6,80.35,7.57,104.71,16.82,9.35,3.55,17.65,9.53,26.58,14.56,90.03,50.65,140.4,158.85,165.49,242.69,84.62,282.74,11.94,613.41,146.39,691.43,134.7,77.49,338.14-205.39,567.67-253.28,73.02-15.24,136.96-14.25,194.67,17.23,121.53,66.28,160.9,232.78,246.39,348.05,66.02,89.02,142.55,152.73,259.37,146.87,246.79-12.39,594.34-332.27,554.45-560.32-62.09-354.94-1026.76-283.01-1178.63-548.12-15.93-27.78-22.79-59.11-20.35-93.81,24.46-348.2,1019.05-1027.3,1627.25-693.29,480.51,263.51,702.73,1150.82,220.67,1977.79"/>
        <path class="cls-5" d="M-464.4,346.36c111.8,2.22,234.74,13.99,365.24,6.02,157.29-9.61,295.35-42.28,409.31-69.92,100.07-24.27,168.97-41.96,212.56-32.96,59.35,12.26,69.66,36.43,74.58,75.6,24.94,198.52-381.12,647.09-222.8,912.59,56.53,94.79,179.03,147.63,295.57,147.77,47.83-.11,95.87-11.18,140.69-29.12,154.56-61.87,279.9-204.27,375.02-344.17,110.74-162.92,164.88-323.45,214.07-465.13,18.41-53.04,48.87-127.34,95.66-187.45,22.54-28.96,52.55-58.33,92.91-67.7s80.8,8.89,104.49,18.43c9.29,3.74,17.5,9.89,26.34,15.11,87.83,51.89,136.67,160.02,161.37,246.18,81.1,282.8,11.02,615.17,144.67,691.94,134.19,76.42,337.75-207.71,565.91-260.74,72.92-16.95,137.28-17.54,195.72,13.11,122.46,64.24,162.01,231.17,245.38,349.33,64.67,91.65,139.51,159.2,256.35,156.03,246.23-6.66,598.01-325.94,559.52-555.53-59.66-355.89-1022.47-292.01-1177.22-557.6-16.23-27.83-23.45-59.15-21.34-93.81,21.25-348.53,1019.39-1027.01,1629.92-690.6,481.86,265.15,703.69,1153.05,220.67,1977.79"/>
        <path class="cls-6" d="M-466.1,359.98c112.84-.2,235.62,9.02,364.89.1,156.63-10.81,294.34-42.58,408.43-69.27,99.74-23.34,168.53-40.14,212.39-31.78,60.77,11.59,72.06,35.07,78.09,72.98,31.29,196.74-376.05,642.67-217.31,911.26,56.33,95.31,178.01,150.04,294.25,150.95,47.65.21,95.64-10.77,140.7-28.9,152.69-61.45,278.54-203.27,374.69-344.68,109.85-161.61,165.68-322.48,214.56-464.91,18.09-52.73,48.06-127.99,94.16-188.36,22.61-29.61,52.47-59.04,92.53-68.1s81.23,10.22,104.26,20.05c9.24,3.94,17.35,10.25,26.1,15.67,85.64,53.1,132.97,161.18,157.26,249.66,77.65,282.87,10.1,616.94,142.94,692.45,133.68,75.35,337.34-210.06,564.16-268.2,72.8-18.66,137.61-20.84,196.77,8.99,123.38,62.21,163.11,229.57,244.37,350.6,63.3,94.29,136.49,167.74,253.34,165.2,245.61-5.35,601.67-319.6,564.6-550.74-57.23-356.83-1018.18-301-1175.82-567.09-16.53-27.89-24.12-59.19-22.33-93.8,18.04-348.86,1019.73-1026.72,1632.6-687.91,483.21,266.78,704.64,1155.28,220.67,1977.79"/>
        <path class="cls-9" d="M-467.8,373.61c113.89-2.62,236.51,4.05,364.54-5.82,155.97-12.01,293.33-42.88,407.54-68.62,99.41-22.4,168.09-38.32,212.21-30.59,62.19,10.89,74.5,33.7,81.61,70.36,37.8,194.93-370.98,638.23-211.82,909.93,56.13,95.83,176.99,152.45,292.94,154.14,47.46.53,95.41-10.36,140.71-28.69,150.82-61.03,277.18-202.26,374.36-345.19,108.97-160.3,166.5-321.51,215.04-464.7,17.77-52.42,47.24-128.65,92.66-189.28,22.67-30.26,52.39-59.73,92.16-68.5,41.41-9.12,81.66,11.57,104.04,21.66,9.19,4.14,17.2,10.6,25.86,16.23,83.48,54.29,129.31,162.34,153.15,253.15,74.26,282.95,9.18,618.7,141.22,692.96,133.18,74.27,336.93-212.43,562.4-275.66,72.69-20.39,137.93-24.12,197.81,4.88,124.3,60.19,164.19,227.96,243.36,351.88,61.93,96.93,133.43,172.1,250.32,174.37,245.11,4.75,605.33-313.27,569.68-545.95-54.82-357.77-1013.89-310-1174.42-576.58-16.84-27.94-24.78-59.23-23.31-93.8,14.82-349.19,1020.06-1026.44,1635.27-685.22,484.57,268.42,705.6,1157.5,220.67,1977.79"/>
        <path class="cls-35" d="M-469.5,387.23c114.93-5.04,237.39-.94,364.2-11.73,155.31-13.22,292.31-43.19,406.65-67.97,99.08-21.48,167.65-36.51,212.04-29.41,63.6,10.17,76.96,32.33,85.12,67.74,44.48,193.07-365.9,633.79-206.33,908.61,55.94,96.34,175.97,154.86,291.62,157.33,47.27.86,95.18-9.94,140.72-28.47,148.95-60.6,275.81-201.26,374.02-345.69,108.08-159,167.31-320.54,215.53-464.48,17.46-52.12,46.42-129.31,91.16-190.2,22.72-30.91,52.31-60.43,91.78-68.89,41.76-8.96,82.09,12.92,103.81,23.27,9.13,4.35,17.06,10.95,25.61,16.79,81.33,55.47,125.69,163.49,149.04,256.64,70.93,283.04,8.25,620.47,139.49,693.47,132.67,73.2,336.5-214.81,560.65-283.12,72.57-22.11,138.24-27.41,198.86.76,125.22,58.18,165.26,226.36,242.35,353.15,60.54,99.58,130.39,178.54,247.31,183.53,244.56,10.44,608.98-306.93,574.75-541.16-52.41-358.71-1009.61-318.99-1173.02-586.06-17.14-28-25.44-59.26-24.3-93.79,11.59-349.52,1020.4-1026.15,1637.95-682.54,485.92,270.05,706.56,1159.73,220.67,1977.79"/>
        <path class="cls-42" d="M-471.19,400.85c115.97-7.46,238.27-5.92,363.85-17.65,154.64-14.44,291.3-43.5,405.76-67.33,98.75-20.55,167.2-34.72,211.87-28.23,65.01,9.44,79.46,30.94,88.64,65.12,51.33,191.15-360.81,629.35-200.83,907.28,55.75,96.85,174.95,157.27,290.31,160.52,47.08,1.18,94.95-9.53,140.73-28.25,147.08-60.17,274.45-200.25,373.69-346.2,107.2-157.69,168.14-319.57,216.02-464.26,17.14-51.81,45.58-129.98,89.66-191.11,22.76-31.57,52.23-61.12,91.4-69.29,42.11-8.79,82.51,14.28,103.59,24.89,9.07,4.56,16.92,11.3,25.37,17.34,79.21,56.62,122.11,164.65,144.92,260.13,67.65,283.16,7.33,622.23,137.76,693.98,132.16,72.13,336.05-217.21,558.89-290.58,72.44-23.85,138.56-30.68,199.91-3.36,126.14,56.19,166.31,224.76,241.34,354.43,59.14,102.22,127.36,184.98,244.29,192.7,244.01,16.11,612.62-300.59,579.83-536.38-50.02-359.66-1005.32-327.99-1171.62-595.55-17.45-28.05-26.11-59.3-25.29-93.79,8.36-349.84,1020.74-1025.86,1640.62-679.85,487.28,271.69,707.51,1161.96,220.67,1977.79"/>
        <path class="cls-41" d="M-472.89,414.48c117.01-9.88,239.15-10.91,363.5-23.57,153.97-15.67,290.28-43.82,404.87-66.68,98.42-19.63,166.75-32.93,211.7-27.05,66.42,8.68,81.98,29.53,92.15,62.5,58.36,189.13-355.72,624.91-195.34,905.95,55.56,97.37,173.93,159.68,288.99,163.71,46.9,1.51,94.72-9.11,140.74-28.03,145.22-59.73,273.09-199.25,373.36-346.71,106.31-156.38,168.97-318.59,216.51-464.05,16.83-51.5,44.73-130.65,88.17-192.03,22.8-32.23,52.15-61.81,91.02-69.69,42.47-8.61,82.92,15.64,103.36,26.5,9,4.78,16.78,11.65,25.13,17.9,77.12,57.76,118.56,165.8,140.81,263.62,64.43,283.3,6.41,624,136.04,694.49,131.65,71.05,335.59-219.63,557.14-298.03,72.31-25.59,138.88-33.95,200.95-7.48,127.06,54.2,167.35,223.16,240.32,355.71,57.73,104.87,124.32,191.41,241.27,201.87,243.47,21.77,616.25-294.26,584.91-531.59-47.63-360.6-1001.03-336.98-1170.22-605.04-17.75-28.11-26.78-59.34-26.27-93.78,5.11-350.17,1021.08-1025.57,1643.29-677.16,488.63,273.32,708.47,1164.18,220.67,1977.79"/>
        <path class="cls-14" d="M-474.59,428.1c118.05-12.3,240.03-15.91,363.16-29.48,153.31-16.9,289.27-44.14,403.99-66.03,98.08-18.71,166.3-31.14,211.52-25.87,67.82,7.91,84.53,28.11,95.67,59.88,65.58,186.99-350.62,620.46-189.85,904.63,55.38,97.88,172.9,162.09,287.67,166.9,46.71,1.83,94.5-8.69,140.76-27.82,143.36-59.29,271.72-198.24,373.03-347.21,105.43-155.07,169.81-317.61,216.99-463.83,16.52-51.19,43.88-131.32,86.67-192.94,22.84-32.89,52.07-62.49,90.64-70.09,42.82-8.43,83.32,17.02,103.14,28.11,8.93,5,16.65,12,24.88,18.46,75.04,58.88,115.05,166.95,136.7,267.11,61.25,283.46,5.49,625.76,134.31,695,131.14,69.98,335.12-222.07,555.38-305.49,72.18-27.34,139.2-37.22,202-11.59,127.98,52.22,168.38,221.55,239.31,356.98,56.31,107.51,121.3,197.83,238.26,211.03,242.93,27.42,619.88-287.92,589.98-526.8-45.26-361.54-996.74-345.98-1168.82-614.53-18.06-28.16-27.44-59.37-27.26-93.78,1.87-350.49,1021.42-1025.28,1645.97-674.48,489.98,274.96,709.42,1166.41,220.67,1977.79"/>
        <path class="cls-43" d="M-476.28,441.72c119.09-14.72,240.91-20.92,362.81-35.4,152.63-18.14,288.25-44.47,403.1-65.38,97.75-17.8,165.83-29.37,211.35-24.69,69.22,7.12,87.09,26.66,99.18,57.26,72.98,184.71-345.52,616.01-184.36,903.3,55.19,98.39,171.88,164.5,286.36,170.08,46.52,2.15,94.27-8.26,140.77-27.6,141.5-58.84,270.36-197.24,372.7-347.72,104.54-153.76,170.66-316.64,217.48-463.61,16.21-50.88,43.02-131.99,85.17-193.86,22.86-33.56,51.99-63.18,90.26-70.48,43.18-8.25,83.71,18.4,102.92,29.73,8.86,5.22,16.52,12.34,24.64,19.02,73,59.99,111.58,168.11,132.58,270.6,58.13,283.65,4.57,627.53,132.59,695.51,130.63,68.91,334.63-224.52,553.63-312.95,72.04-29.09,139.51-40.48,203.05-15.71,128.89,50.25,169.4,219.95,238.3,358.26,54.88,110.15,118.27,204.25,235.24,220.2,242.4,33.05,623.5-281.59,595.06-522.01-42.89-362.49-992.45-354.97-1167.41-624.01-18.36-28.22-28.11-59.41-28.25-93.77-1.39-350.82,1021.76-1024.99,1648.64-671.79,491.34,276.59,710.38,1168.63,220.67,1977.79"/>
        <path class="cls-22" d="M-477.98,455.35c120.13-17.14,241.79-25.92,362.46-41.32,151.96-19.38,287.24-44.8,402.21-64.73,97.42-16.89,165.37-27.6,211.18-23.5,70.62,6.31,89.68,25.19,102.7,54.64,80.56,182.26-340.4,611.56-178.87,901.98,55.01,98.9,170.86,166.91,285.04,173.27,46.33,2.48,94.05-7.84,140.78-27.38,139.64-58.39,269-196.23,372.36-348.23,103.66-152.45,171.51-315.66,217.97-463.4,15.9-50.57,42.15-132.66,83.67-194.77,22.88-34.22,51.91-63.86,89.88-70.88,43.53-8.06,84.1,19.78,102.69,31.34,8.78,5.45,16.39,12.68,24.4,19.57,70.98,61.09,108.15,169.26,128.47,274.09,55.04,283.87,3.65,629.29,130.86,696.02,130.12,67.84,334.12-226.98,551.87-320.41,71.89-30.84,139.83-43.74,204.09-19.83,129.81,48.29,170.4,218.34,237.29,359.54,53.43,112.79,115.25,210.66,232.23,229.36,241.89,38.68,627.12-275.25,600.13-517.22-40.53-363.43-988.17-363.97-1166.01-633.5-18.66-28.27-28.78-59.45-29.23-93.77-4.65-351.14,1022.1-1024.7,1651.32-669.1,492.69,278.23,711.34,1170.86,220.67,1977.79"/>
        <path class="cls-12" d="M-479.68,468.97c121.17-19.55,242.66-30.94,362.12-47.23,151.29-20.64,286.22-45.13,401.32-64.08,97.09-15.98,164.89-25.83,211-22.32,72,5.48,92.28,23.69,106.21,52.02,88.31,179.63-335.28,607.11-173.37,900.65,54.83,99.41,169.84,169.32,283.73,176.46,46.15,2.8,93.82-7.41,140.79-27.16,137.79-57.94,267.63-195.23,372.03-348.73,102.77-151.14,172.37-314.68,218.46-463.18,15.6-50.26,41.27-133.34,82.17-195.69,22.89-34.9,51.84-64.53,89.5-71.28,43.89-7.86,84.47,21.17,102.47,32.95,8.69,5.69,16.26,13.02,24.15,20.13,69,62.18,104.75,170.42,124.36,277.57,52,284.11,2.73,631.06,129.14,696.53,129.62,66.76,333.59-229.45,550.12-327.87,71.74-32.6,140.15-46.99,205.14-23.95,130.73,46.34,171.39,216.72,236.28,360.81,51.98,115.43,112.24,217.07,229.21,238.53,241.38,44.29,630.73-268.92,605.21-512.44-38.18-364.38-983.88-372.97-1164.61-642.99-18.97-28.33-29.45-59.48-30.22-93.76-7.92-351.46,1022.44-1024.41,1653.99-666.41,494.04,279.86,712.29,1173.09,220.67,1977.79"/>
        <path class="cls-16" d="M-481.38,482.59c122.22-21.97,243.53-35.96,361.77-53.15,150.61-21.9,285.21-45.47,400.43-63.44,96.75-15.08,164.42-24.07,210.83-21.14,73.39,4.64,94.9,22.15,109.73,49.4,96.21,176.77-330.15,602.65-167.88,899.32,54.65,99.92,168.82,171.73,282.41,179.65,45.96,3.13,93.6-6.99,140.8-26.95,135.93-57.48,266.27-194.22,371.7-349.24,101.89-149.84,173.24-313.69,218.94-462.96,15.29-49.95,40.38-134.02,80.67-196.6,22.9-35.57,51.76-65.21,89.13-71.68,44.24-7.66,84.84,22.57,102.24,34.56,8.6,5.93,16.14,13.36,23.91,20.69,67.04,63.26,101.38,171.58,120.25,281.06,49,284.39,1.81,632.83,127.41,697.04,129.11,65.69,333.04-231.93,548.37-335.33,71.58-34.37,140.46-50.23,206.19-28.06,131.65,44.4,172.37,215.1,235.27,362.09,50.52,118.06,109.23,223.47,226.2,247.7,240.88,49.9,634.33-262.59,610.29-507.65-35.84-365.32-979.59-381.96-1163.21-652.47-19.27-28.38-30.18-59.52-31.21-93.76-11.82-351.76,1022.78-1024.12,1656.66-663.73,495.4,281.49,713.25,1175.31,220.67,1977.79"/>
        <path class="cls-34" d="M-483.07,496.22c123.26-24.39,244.4-40.98,361.42-59.07,149.93-23.17,284.19-45.82,399.55-62.79,96.42-14.18,163.93-22.32,210.66-19.96,74.77,3.78,97.52,20.58,113.24,46.78,104.25,173.68-324.5,597.91-162.39,898,54.65,100.33,167.8,174.14,281.1,182.84,45.77,3.45,93.38-6.56,140.81-26.73,134.08-57.02,264.91-193.22,371.37-349.75,101-148.53,174.12-312.71,219.43-462.75,14.99-49.64,39.49-134.69,79.17-197.52,22.9-36.25,51.68-65.88,88.75-72.08,44.6-7.46,85.19,23.96,102.02,36.18,8.5,6.17,16.03,13.69,23.67,21.25,65.11,64.34,98.06,172.74,116.13,284.55,46.03,284.71.89,634.59,125.68,697.55,128.6,64.62,332.48-234.42,546.61-342.78,71.41-36.14,140.78-53.47,207.23-32.18,132.57,42.47,173.34,213.48,234.26,363.36,49.05,120.69,106.22,229.86,223.18,256.86,240.39,55.49,637.93-256.25,615.36-502.86-33.51-366.27-975.3-390.96-1161.81-661.96-19.58-28.44-30.84-59.55-32.19-93.75-14.99-352.07,1023.12-1023.83,1659.34-661.04,496.75,283.13,714.2,1177.54,220.67,1977.79"/>
        <path class="cls-18" d="M-484.77,509.84c124.3-26.81,245.27-46.01,361.08-64.99,149.25-24.45,283.18-46.17,398.66-62.14,96.09-13.29,163.44-20.57,210.48-18.78,76.14,2.91,100.14,18.97,116.76,44.16,112.4,170.34-319.48,593.51-156.9,896.67,54.43,100.86,166.77,176.55,279.78,186.02,45.59,3.77,93.2-6.03,140.83-26.51,132.35-56.3,263.54-192.21,371.04-350.25,100.12-147.22,175-311.72,219.92-462.53,14.69-49.33,38.59-135.37,77.68-198.43,22.89-36.92,51.6-66.55,88.37-72.47,44.95-7.25,85.53,25.36,101.79,37.79,8.4,6.42,15.91,14.03,23.43,21.8,63.21,65.42,94.76,173.9,112.02,288.04,43.1,285.05-.03,636.36,123.96,698.06,128.09,63.54,331.89-236.92,544.86-350.24,71.24-37.91,141.1-56.7,208.28-36.3,133.5,40.55,174.3,211.85,233.24,364.64,47.57,123.32,103.22,236.25,220.17,266.03,239.91,61.08,641.13-249.89,620.44-498.07-31.76-367.17-971.02-399.95-1160.41-671.45-19.88-28.49-31.5-59.59-33.18-93.75-18.17-352.39,1023.46-1023.54,1662.01-658.35,498.11,284.76,715.16,1179.77,220.67,1977.79"/>
        <path class="cls-23" d="M-486.47,523.46c125.34-29.23,246.1-51.25,360.73-70.9,148.52-26,282.14-46.69,397.77-61.49,95.74-12.53,162.95-18.83,210.31-17.6,77.5,2.02,102.76,17.33,120.27,41.54,120.63,166.74-314.46,589.11-151.41,895.34,54.22,101.39,165.75,178.96,278.46,189.21,45.4,4.1,92.96-5.62,140.84-26.29,130.46-55.91,262.18-191.2,370.7-350.76,99.24-145.91,176.14-310.66,220.41-462.31,14.47-49,37.68-136.04,76.18-199.35,22.87-37.61,51.52-67.21,87.99-72.87,45.31-7.03,85.86,26.76,101.57,39.4,8.29,6.67,15.8,14.36,23.18,22.36,61.34,66.5,91.51,175.07,107.91,291.53,40.2,285.44-.95,638.12,122.23,698.57,127.58,62.47,331.29-239.42,543.1-357.7,71.06-39.68,141.42-59.93,209.33-40.42,134.43,38.64,175.26,210.21,232.23,365.92,46.09,125.95,100.28,242.44,217.15,275.19,239.56,66.24,644.83-243.57,625.51-493.28-29.26-368.14-966.73-408.95-1159.01-680.94-20.18-28.55-32.16-59.63-34.17-93.74-21.34-352.7,1023.8-1023.25,1664.69-655.67,499.46,286.4,716.12,1181.99,220.67,1977.79"/>
        <path class="cls-33" d="M-488.17,537.09c126.38-31.65,246.98-56.19,360.38-76.82,147.85-27.17,281.14-46.97,396.88-60.84,95.42-11.58,162.44-17.09,210.14-16.41,78.86,1.12,105.37,15.64,123.79,38.92,128.91,162.88-309.44,584.72-145.92,894.02,54,101.92,164.73,181.37,277.15,192.4,45.21,4.42,92.73-5.22,140.85-26.08,128.58-55.53,260.82-190.2,370.37-351.27,98.35-144.6,176.92-309.71,220.89-462.1,14.14-48.7,36.76-136.72,74.68-200.26,22.85-38.29,51.45-67.81,87.61-73.27,45.68-6.73,86.18,28.16,101.35,41.02,8.17,6.93,15.7,14.7,22.94,22.92,59.5,67.59,88.29,176.24,103.79,295.02,37.32,285.86-1.87,639.89,120.51,699.08,127.07,61.4,330.48-242.24,541.35-365.16,70.81-41.56,141.72-63.07,210.38-44.53,135.31,36.91,175.98,208.65,231.22,367.19,44.42,128.63,97.27,248.92,214.14,284.36,239.05,72.02,648.54-237.25,630.59-488.5-26.76-369.11-962.44-417.94-1157.6-690.42-20.49-28.6-32.81-59.66-35.15-93.74-24.52-353.02,1024.14-1022.96,1667.36-652.98,500.81,288.03,717.07,1184.22,220.67,1977.79"/>
        <path class="cls-15" d="M-489.86,550.71C-195.26,471.94,62.01,430.59,266.17,407.78c253.93-28.37,306.35-14.7,337.27,21.06,137.2,158.75-304.42,580.32-140.42,892.69,53.79,102.45,163.71,183.78,275.83,195.59,266.94,28.13,620.13-446.33,732.28-839.52,22.24-77.97,65.83-261.31,160.41-274.84,46.02-6.58,86.49,29.56,101.12,42.63,228.09,203.71,61.85,936.12,241.16,1021.58,169.25,80.67,476.02-491.55,751.01-421.27,246.97,63.12,180.55,576.94,441.33,662,238.54,77.8,652.24-230.93,635.67-483.71-26.82-408.94-1164.27-435.42-1192.34-793.64-27.69-353.34,1024.48-1022.67,1670.03-650.29,502.17,289.67,718.03,1186.45,220.67,1977.79"/>
      </g>
      <path class="cls-47" d="M3196.17,815.91l107.69-60.85,131.57-27.34.99-41.76-116.42-65.24-91.3-83.92,83.35-90.06,91.3,83.92,69.79,117.8,40.76-10.02,21.02-135.11,56.97-124.72,112.24,51.27-56.97,124.72-88.36,104.35,19.11,37.37,134.74-24.37,123.21,14.07-13.5,121.96-123.21-14.07-125.54-45.29-30.92,28.08,65.48,117.35,24.51,121.23-121.24,24.52-24.51-121.24,7.73-129.12-37.42-17.09-92.53,90.38-107.69,60.86-60.85-107.69Z"/>
      <path class="cls-47" d="M791.31,823.68l107.69-60.85,131.57-27.34.99-41.76-116.42-65.24-91.3-83.92,83.35-90.06,91.3,83.92,69.79,117.8,40.76-10.02,21.02-135.11,56.97-124.72,112.24,51.27-56.97,124.72-88.36,104.35,19.11,37.37,134.74-24.37,123.21,14.07-13.5,121.96-123.21-14.07-125.54-45.29-30.92,28.08,65.48,117.35,24.51,121.23-121.24,24.52-24.51-121.24,7.73-129.12-37.42-17.09-92.53,90.38-107.69,60.86-60.85-107.69Z"/>
      <rect class="cls-1" width="3535.66" height="910.78"/>
      <path class="cls-7" d="M-508.67,768.87C-393.53,639.76,13.07,189.6,319.84-28.53c46.25-32.89,127.05-86.68,220.91-71.47,116.37,18.86,218.27,138.2,229.14,259.53,3.82,42.65-.81,116.68-120.06,270.82-185.09,239.25-311.58,238.81-463.85,428.79-72.72,90.72-209.68,261.61-171.81,425.03,69.22,298.71,600.98,481.31,725.94,353.57,63.66-65.07-33.35-156.88-28.84-367.36,8.59-400.44,368.15-461.64,531.6-975.44,99.38-312.39,33.35-425.61,159.23-522.83,218.78-168.97,735.49-45.44,863.23,234.84,164.94,361.93-406.23,793.2-227.56,1080.38,89.9,144.5,310.76,153.62,659.23,178.04,324.93,22.76,594.61,49.11,795.84-131.65,287.46-258.22,341.66-736.37,184.88-865.11-85.04-69.83-181.41,4.8-361.09-37.61-226.05-53.35-378.73-243.5-477.69-413.75"/>
    </g>
  </g>
</svg>